<svg width="44" height="81" viewBox="0 0 44 81" fill="none" xmlns="http://www.w3.org/2000/svg">
<path d="M21.5366 0C26.2289 0 30.002 2.58298 31.3259 6.85255C35.1931 7.77527 38.1785 10.5227 38.1785 14.684C38.1785 18.9737 35.3736 22.7083 31.3259 23.4945V29.3681H11.7472V23.4945C7.6996 22.7083 4.89468 18.9737 4.89468 14.684C4.89468 10.5227 7.88008 7.77527 11.7472 6.85255C13.0712 2.58298 16.8443 0 21.5366 0ZM30.5306 31.3259C31.0496 32.5204 31.3259 33.8563 31.3259 35.2417C31.3259 40.6482 26.9431 45.031 21.5366 45.031C16.1301 45.031 11.7472 40.6482 11.7472 35.2417C11.7472 33.8563 12.0235 32.5204 12.5426 31.3259H30.5306ZM21.5366 47.9678C32.9255 47.9678 43.0732 52.9661 43.0732 59.7151V80.2727H27.4102V57.7572C27.4141 57.2359 27.1996 56.7165 26.829 56.35L18.5692 48.0902C19.5486 48.0148 20.5317 47.9678 21.5366 47.9678ZM13.7357 48.7938L23.4945 58.5526V80.2727H0V59.7151C0 54.5745 5.89699 50.4679 13.7357 48.7938ZM17.6208 57.7572C16.5395 57.7572 15.663 58.6337 15.663 59.7151C15.663 60.7964 16.5395 61.6729 17.6208 61.6729C18.7021 61.6729 19.5787 60.7964 19.5787 59.7151C19.5787 58.6337 18.7021 57.7572 17.6208 57.7572ZM17.6208 64.6097C16.5395 64.6097 15.663 65.4863 15.663 66.5676C15.663 67.649 16.5395 68.5255 17.6208 68.5255C18.7021 68.5255 19.5787 67.649 19.5787 66.5676C19.5787 65.4863 18.7021 64.6097 17.6208 64.6097ZM17.6208 71.4623C16.5395 71.4623 15.663 72.3388 15.663 73.4202C15.663 74.5015 16.5395 75.378 17.6208 75.378C18.7021 75.378 19.5787 74.5015 19.5787 73.4202C19.5787 72.3388 18.7021 71.4623 17.6208 71.4623Z" fill="#2E1A16"/>
</svg>
