<svg width="32" height="32" viewBox="0 0 32 32" fill="none" xmlns="http://www.w3.org/2000/svg">
<path d="M7.1815 28.3974C6.55159 28.3974 6.01535 28.1761 5.57277 27.7335C5.13021 27.291 4.90894 26.7547 4.90894 26.1248V8.48803C4.90894 7.8581 5.13021 7.32185 5.57277 6.8793C6.01535 6.43672 6.5526 6.21543 7.18454 6.21543H9.16534V4.35C9.16534 4.0874 9.25871 3.86257 9.44547 3.6755C9.63222 3.48843 9.85829 3.3949 10.1237 3.3949C10.389 3.3949 10.6151 3.48843 10.8019 3.6755C10.9886 3.86257 11.082 4.0874 11.082 4.35V6.21543H20.9691V4.32437C20.9691 4.07032 21.0603 3.8519 21.2428 3.6691C21.4253 3.4863 21.645 3.3949 21.9018 3.3949C22.1586 3.3949 22.3783 3.4863 22.5607 3.6691C22.7432 3.8519 22.8345 4.07032 22.8345 4.32437V6.21543H24.8153C25.4472 6.21543 25.9845 6.43672 26.427 6.8793C26.8696 7.32185 27.0909 7.8581 27.0909 8.48803V26.1248C27.0909 26.7547 26.8696 27.291 26.427 27.7335C25.9845 28.1761 25.4482 28.3974 24.8183 28.3974H7.1815ZM7.18454 26.5321H24.8153C24.9178 26.5321 25.0118 26.4893 25.0973 26.4038C25.1828 26.3184 25.2255 26.2243 25.2255 26.1218V13.7975H6.77427V26.1218C6.77427 26.2243 6.817 26.3184 6.90247 26.4038C6.98796 26.4893 7.08198 26.5321 7.18454 26.5321ZM6.77427 11.9321H25.2255V8.49106C25.2255 8.38849 25.1828 8.29445 25.0973 8.20896C25.0118 8.1235 24.9178 8.08076 24.8153 8.08076H7.18454C7.08198 8.08076 6.98796 8.1235 6.90247 8.20896C6.817 8.29445 6.77427 8.38849 6.77427 8.49106V11.9321ZM16.0017 18.7423C15.6808 18.7423 15.4082 18.6307 15.1839 18.4075C14.9595 18.1844 14.8473 17.9124 14.8473 17.5915C14.8473 17.2707 14.9589 16.9981 15.1821 16.7737C15.4053 16.5494 15.6773 16.4372 15.9981 16.4372C16.319 16.4372 16.5916 16.5488 16.8159 16.772C17.0403 16.9952 17.1525 17.2672 17.1525 17.588C17.1525 17.9088 17.0409 18.1814 16.8177 18.4058C16.5945 18.6301 16.3225 18.7423 16.0017 18.7423ZM10.6683 18.7423C10.3475 18.7423 10.0749 18.6307 9.85054 18.4075C9.62618 18.1844 9.514 17.9124 9.514 17.5915C9.514 17.2707 9.6256 16.9981 9.8488 16.7737C10.072 16.5494 10.344 16.4372 10.6648 16.4372C10.9856 16.4372 11.2582 16.5488 11.4826 16.772C11.707 16.9952 11.8191 17.2672 11.8191 17.588C11.8191 17.9088 11.7075 18.1814 11.4843 18.4058C11.2612 18.6301 10.9892 18.7423 10.6683 18.7423ZM21.335 18.7423C21.0142 18.7423 20.7416 18.6307 20.5172 18.4075C20.2928 18.1844 20.1807 17.9124 20.1807 17.5915C20.1807 17.2707 20.2923 16.9981 20.5155 16.7737C20.7386 16.5494 21.0106 16.4372 21.3315 16.4372C21.6523 16.4372 21.9249 16.5488 22.1493 16.772C22.3736 16.9952 22.4858 17.2672 22.4858 17.588C22.4858 17.9088 22.3742 18.1814 22.151 18.4058C21.9278 18.6301 21.6558 18.7423 21.335 18.7423ZM16.0017 23.9731C15.6808 23.9731 15.4082 23.8615 15.1839 23.6383C14.9595 23.4151 14.8473 23.1431 14.8473 22.8223C14.8473 22.5014 14.9589 22.2289 15.1821 22.0045C15.4053 21.7801 15.6773 21.668 15.9981 21.668C16.319 21.668 16.5916 21.7796 16.8159 22.0028C17.0403 22.2259 17.1525 22.4979 17.1525 22.8188C17.1525 23.1396 17.0409 23.4122 16.8177 23.6365C16.5945 23.8609 16.3225 23.9731 16.0017 23.9731ZM10.6683 23.9731C10.3475 23.9731 10.0749 23.8615 9.85054 23.6383C9.62618 23.4151 9.514 23.1431 9.514 22.8223C9.514 22.5014 9.6256 22.2289 9.8488 22.0045C10.072 21.7801 10.344 21.668 10.6648 21.668C10.9856 21.668 11.2582 21.7796 11.4826 22.0028C11.707 22.2259 11.8191 22.4979 11.8191 22.8188C11.8191 23.1396 11.7075 23.4122 11.4843 23.6365C11.2612 23.8609 10.9892 23.9731 10.6683 23.9731ZM21.335 23.9731C21.0142 23.9731 20.7416 23.8615 20.5172 23.6383C20.2928 23.4151 20.1807 23.1431 20.1807 22.8223C20.1807 22.5014 20.2923 22.2289 20.5155 22.0045C20.7386 21.7801 21.0106 21.668 21.3315 21.668C21.6523 21.668 21.9249 21.7796 22.1493 22.0028C22.3736 22.2259 22.4858 22.4979 22.4858 22.8188C22.4858 23.1396 22.3742 23.4122 22.151 23.6365C21.9278 23.8609 21.6558 23.9731 21.335 23.9731Z" fill="#5F4022"/>
</svg>
