<svg width="28" height="28" viewBox="0 0 28 28" fill="none" xmlns="http://www.w3.org/2000/svg">
<path d="M8.68339 23.7335C8.08174 23.7138 7.51297 23.5624 6.97708 23.2791C6.44121 22.9959 5.93583 22.5757 5.46094 22.0186C4.73648 21.1768 4.17059 20.1547 3.76327 18.9524C3.35594 17.75 3.15228 16.5074 3.15228 15.2244C3.15228 13.7104 3.43629 12.2891 4.0043 10.9605C4.57229 9.63194 5.34576 8.47481 6.32471 7.48913C7.30366 6.50345 8.45257 5.72474 9.77142 5.153C11.0903 4.58127 12.4997 4.29541 13.9999 4.29541C15.5 4.29541 16.9105 4.58169 18.2314 5.15425C19.5522 5.72679 20.7017 6.50867 21.6799 7.49989C22.658 8.49111 23.4305 9.65419 23.9974 10.9891C24.5643 12.3241 24.8477 13.7536 24.8477 15.2777C24.8477 16.6022 24.6346 17.8631 24.2083 19.0604C23.782 20.2577 23.1877 21.2789 22.4253 22.124C21.9413 22.6632 21.4324 23.0663 20.8987 23.3333C20.365 23.6003 19.8106 23.7338 19.2357 23.7338C18.9341 23.7338 18.6377 23.6981 18.3464 23.6266C18.0551 23.5552 17.7618 23.4462 17.4664 23.2997L15.8476 22.492C15.55 22.3469 15.2465 22.2371 14.9373 22.1627C14.628 22.0883 14.3119 22.0511 13.9888 22.0511C13.6582 22.0511 13.3378 22.0883 13.0274 22.1627C12.717 22.2371 12.4186 22.3469 12.1322 22.492L10.5336 23.2997C10.2247 23.4542 9.92013 23.57 9.6199 23.6472C9.31966 23.7244 9.00749 23.7531 8.68339 23.7335ZM8.74776 22.1016C8.92276 22.1016 9.09776 22.0822 9.27276 22.0433C9.44776 22.0044 9.61977 21.9393 9.78878 21.8481L11.397 21.046C11.8064 20.8321 12.2274 20.6766 12.66 20.5793C13.0927 20.4821 13.5296 20.4335 13.9708 20.4335C14.4121 20.4335 14.8514 20.4821 15.2889 20.5793C15.7264 20.6766 16.1504 20.8321 16.5607 21.046L18.2023 21.8481C18.3681 21.9377 18.5365 22.0023 18.7072 22.042C18.878 22.0818 19.0463 22.1016 19.2122 22.1016C19.5829 22.1016 19.9408 22.0029 20.286 21.8054C20.6311 21.608 20.9708 21.313 21.3051 20.9204C21.9079 20.2069 22.377 19.3506 22.7124 18.3514C23.0479 17.3523 23.2156 16.3124 23.2156 15.2317C23.2156 12.6359 22.3233 10.4363 20.5387 8.63279C18.7541 6.82931 16.5745 5.92758 14 5.92758C11.4199 5.92758 9.23893 6.83361 7.45714 8.64568C5.67535 10.4577 4.78445 12.6666 4.78445 15.2721C4.78445 16.3648 4.9574 17.4164 5.3033 18.4272C5.64917 19.4379 6.12538 20.2903 6.73191 20.9843C7.0662 21.3732 7.39582 21.6566 7.72077 21.8346C8.04571 22.0126 8.38804 22.1016 8.74776 22.1016ZM14.0007 17.1466C14.5514 17.1466 15.0199 16.9545 15.4062 16.5703C15.7924 16.1861 15.9856 15.7191 15.9856 15.1693C15.9856 15.0057 15.9654 14.8439 15.925 14.6841C15.8846 14.5242 15.8278 14.3732 15.7545 14.2311L17.6077 11.8383C17.8632 12.1107 18.0834 12.3973 18.2682 12.6983C18.4531 12.9992 18.5871 13.3269 18.6701 13.6814C18.7194 13.8983 18.8189 14.0813 18.9684 14.2305C19.118 14.3797 19.3012 14.4543 19.5181 14.4543C19.7978 14.4543 20.0126 14.3327 20.1626 14.0894C20.3125 13.8462 20.3463 13.5808 20.2641 13.2933C19.843 11.9037 19.0576 10.7717 17.9078 9.89704C16.758 9.02243 15.4551 8.58513 13.999 8.58513C12.5406 8.58513 11.2344 9.02142 10.0805 9.89401C8.92654 10.7666 8.1383 11.8997 7.71573 13.2933C7.63348 13.5808 7.66825 13.8462 7.82006 14.0894C7.97188 14.3327 8.18589 14.4543 8.4621 14.4543C8.67471 14.4543 8.8525 14.3797 8.99547 14.2305C9.13845 14.0813 9.23947 13.8983 9.29855 13.6814C9.58275 12.6359 10.163 11.7972 11.0392 11.1652C11.9154 10.5333 12.9025 10.2173 14.0006 10.2173C14.4033 10.2173 14.8025 10.2695 15.1981 10.3738C15.5937 10.4781 15.9692 10.6301 16.3244 10.8298L14.4532 13.2439C14.3859 13.223 14.3112 13.2073 14.229 13.1968C14.1468 13.1864 14.0701 13.1811 13.9989 13.1811C13.4485 13.1811 12.9811 13.3739 12.5967 13.7596C12.2123 14.1452 12.0201 14.6139 12.0201 15.1657C12.0201 15.7175 12.2125 16.1856 12.5974 16.57C12.9822 16.9544 13.45 17.1466 14.0007 17.1466Z" fill="url(#paint0_linear_385_213)"/>
<defs>
<linearGradient id="paint0_linear_385_213" x1="14" y1="4.29541" x2="14" y2="23.7395" gradientUnits="userSpaceOnUse">
<stop stop-color="#FF7A00"/>
<stop offset="1" stop-color="#FBAC50"/>
</linearGradient>
</defs>
</svg>
