<svg width="32" height="32" viewBox="0 0 32 32" fill="none" xmlns="http://www.w3.org/2000/svg">
<path d="M9.92381 27.124C9.23621 27.1015 8.58618 26.9284 7.97374 26.6047C7.36132 26.281 6.78374 25.8008 6.24101 25.1641C5.41305 24.202 4.76632 23.0339 4.30081 21.6598C3.83529 20.2857 3.60254 18.8656 3.60254 17.3993C3.60254 15.669 3.92712 14.0447 4.57627 12.5263C5.22541 11.0079 6.10937 9.68549 7.22817 8.559C8.34697 7.43251 9.66001 6.54256 11.1673 5.88914C12.6745 5.23574 14.2854 4.90903 15.9998 4.90903C17.7142 4.90903 19.3262 5.23621 20.8358 5.89057C22.3453 6.5449 23.659 7.43848 24.7769 8.5713C25.8948 9.70412 26.7777 11.0334 27.4255 12.559C28.0734 14.0846 28.3973 15.7184 28.3973 17.4602C28.3973 18.9739 28.1538 20.4149 27.6666 21.7833C27.1794 23.1517 26.5001 24.3188 25.6288 25.2846C25.0757 25.9008 24.4941 26.3615 23.8841 26.6666C23.2742 26.9717 22.6406 27.1243 21.9835 27.1243C21.6389 27.1243 21.3002 27.0835 20.9673 27.0019C20.6344 26.9202 20.2991 26.7957 19.9615 26.6282L18.1115 25.7051C17.7713 25.5393 17.4245 25.4138 17.0711 25.3288C16.7177 25.2438 16.3564 25.2012 15.9871 25.2012C15.6093 25.2012 15.2431 25.2438 14.8884 25.3288C14.5337 25.4138 14.1927 25.5393 13.8653 25.7051L12.0384 26.6282C11.6853 26.8048 11.3372 26.9372 10.9941 27.0254C10.651 27.1135 10.2942 27.1464 9.92381 27.124ZM9.99737 25.259C10.1974 25.259 10.3974 25.2367 10.5974 25.1923C10.7974 25.1479 10.994 25.0735 11.1871 24.9692L13.0251 24.0526C13.493 23.8081 13.9741 23.6303 14.4685 23.5192C14.963 23.4081 15.4623 23.3526 15.9666 23.3526C16.4709 23.3526 16.973 23.4081 17.473 23.5192C17.973 23.6303 18.4575 23.8081 18.9265 24.0526L20.8025 24.9692C20.9921 25.0716 21.1845 25.1455 21.3796 25.1909C21.5747 25.2363 21.7671 25.259 21.9567 25.259C22.3804 25.259 22.7895 25.1461 23.1839 24.9205C23.5784 24.6949 23.9666 24.3577 24.3487 23.909C25.0376 23.0936 25.5737 22.115 25.957 20.9731C26.3403 19.8312 26.532 18.6427 26.532 17.4077C26.532 14.441 25.5122 11.9271 23.4727 9.86604C21.4331 7.80492 18.9422 6.77437 15.9999 6.77437C13.0512 6.77437 10.5587 7.80983 8.52237 9.88077C6.48604 11.9517 5.46787 14.4761 5.46787 17.4538C5.46787 18.7026 5.66553 19.9045 6.06084 21.0596C6.45613 22.2147 7.00036 23.1889 7.69354 23.9821C8.07558 24.4265 8.45229 24.7504 8.82367 24.9538C9.19503 25.1573 9.58626 25.259 9.99737 25.259ZM16.0007 19.5961C16.6301 19.5961 17.1655 19.3766 17.607 18.9375C18.0484 18.4984 18.2691 17.9646 18.2691 17.3363C18.2691 17.1493 18.2461 16.9645 18.1999 16.7818C18.1538 16.5991 18.0888 16.4265 18.005 16.2641L20.123 13.5295C20.415 13.8408 20.6666 14.1684 20.8779 14.5123C21.0892 14.8562 21.2423 15.2307 21.3371 15.6359C21.3935 15.8837 21.5072 16.0929 21.6781 16.2634C21.8491 16.4339 22.0585 16.5192 22.3063 16.5192C22.626 16.5192 22.8715 16.3802 23.0429 16.1022C23.2142 15.8242 23.2529 15.5209 23.1589 15.1923C22.6777 13.6043 21.7801 12.3105 20.466 11.3109C19.152 10.3113 17.6629 9.81157 15.9988 9.81157C14.3321 9.81157 12.8393 10.3102 11.5205 11.3074C10.2017 12.3047 9.30084 13.5997 8.81791 15.1923C8.72391 15.5209 8.76365 15.8242 8.93714 16.1022C9.11065 16.3802 9.35524 16.5192 9.67091 16.5192C9.91388 16.5192 10.1171 16.4339 10.2805 16.2634C10.4439 16.0929 10.5593 15.8837 10.6268 15.6359C10.9516 14.441 11.6147 13.4825 12.6161 12.7602C13.6175 12.038 14.7457 11.6769 16.0006 11.6769C16.4609 11.6769 16.9171 11.7365 17.3692 11.8557C17.8213 11.975 18.2504 12.1487 18.6564 12.3769L16.5179 15.1359C16.441 15.112 16.3556 15.094 16.2616 15.0821C16.1678 15.0701 16.0801 15.0641 15.9987 15.0641C15.3696 15.0641 14.8354 15.2845 14.3961 15.7252C13.9568 16.1659 13.7371 16.7016 13.7371 17.3323C13.7371 17.9629 13.9571 18.4979 14.3969 18.9372C14.8368 19.3765 15.3714 19.5961 16.0007 19.5961Z" fill="#5F4022"/>
</svg>
