<svg width="36" height="34" viewBox="0 0 36 34" fill="none" xmlns="http://www.w3.org/2000/svg">
<path d="M18 28.4148L9.13344 33.7049C8.7629 33.9319 8.37912 34.0279 7.98211 33.993C7.5851 33.9581 7.23661 33.8272 6.93665 33.6002C6.63669 33.3732 6.4073 33.0851 6.2485 32.736C6.08969 32.3868 6.06323 32.0027 6.1691 31.5836L8.52469 21.6057L0.690357 14.9014C0.355104 14.6046 0.143365 14.2685 0.0551403 13.8931C-0.0330842 13.5178 -0.0154393 13.1555 0.108075 12.8063C0.231589 12.4571 0.438917 12.1603 0.730058 11.9159C1.0212 11.6715 1.38733 11.5231 1.82845 11.4707L12.1507 10.5803L16.1738 1.17849C16.3502 0.776933 16.6061 0.480127 16.9413 0.288076C17.2766 0.0960255 17.6295 0 18 0C18.3705 0 18.7234 0.0960255 19.0587 0.288076C19.3939 0.480127 19.6498 0.776933 19.8262 1.17849L23.8493 10.5803L34.1715 11.4707C34.6127 11.5231 34.9788 11.6715 35.2699 11.9159C35.5611 12.1603 35.7684 12.4571 35.8919 12.8063C36.0154 13.1555 36.0331 13.5178 35.9449 13.8931C35.8566 14.2685 35.6449 14.6046 35.3096 14.9014L27.4753 21.6057L29.8309 31.5836C29.9368 32.0027 29.9103 32.3868 29.7515 32.736C29.5927 33.0851 29.3633 33.3732 29.0634 33.6002C28.7634 33.8272 28.4149 33.9581 28.0179 33.993C27.6209 34.0279 27.2371 33.9319 26.8666 33.7049L18 28.4148Z" fill="#FFE500"/>
</svg>
