<svg width="36" height="9" viewBox="0 0 36 9" fill="none" xmlns="http://www.w3.org/2000/svg">
<path d="M0.111084 4.50001C0.111084 5.49303 0.464657 6.34313 1.1718 7.05031C1.87898 7.75749 2.72908 8.11108 3.72211 8.11108C4.71517 8.11108 5.56527 7.75749 6.27241 7.05031C6.97959 6.34313 7.33318 5.49303 7.33318 4.50001C7.33318 3.50698 6.97959 2.65688 6.27241 1.9497C5.56527 1.24252 4.71517 0.888927 3.72211 0.888927C2.72908 0.888927 1.87898 1.24252 1.1718 1.9497C0.464657 2.65688 0.111084 3.50698 0.111084 4.50001ZM14 4.50001C14 5.49303 14.3536 6.34313 15.0608 7.05031C15.768 7.75749 16.6181 8.11108 17.6111 8.11108C18.6041 8.11108 19.4542 7.75749 20.1614 7.05031C20.8686 6.34313 21.2222 5.49303 21.2222 4.50001C21.2222 3.50698 20.8686 2.65688 20.1614 1.9497C19.4542 1.24252 18.6041 0.888927 17.6111 0.888927C16.6181 0.888927 15.768 1.24252 15.0608 1.9497C14.3536 2.65688 14 3.50698 14 4.50001ZM27.889 4.50001C27.889 5.49303 28.2426 6.34313 28.9498 7.05031C29.6569 7.75749 30.507 8.11108 31.5001 8.11108C32.4931 8.11108 33.3432 7.75749 34.0504 7.05031C34.7575 6.34313 35.1111 5.49303 35.1111 4.50001C35.1111 3.50698 34.7575 2.65688 34.0504 1.9497C33.3432 1.24252 32.4931 0.888927 31.5001 0.888927C30.507 0.888927 29.6569 1.24252 28.9498 1.9497C28.2426 2.65688 27.889 3.50698 27.889 4.50001Z" fill="white"/>
</svg>
