<svg width="17" height="21" viewBox="0 0 17 21" fill="none" xmlns="http://www.w3.org/2000/svg">
<path d="M5.69229 1.5555V0H11.3077V1.5555H5.69229ZM7.75003 13.0228H9.24997V7.19944H7.75003V13.0228ZM8.50003 21C7.33076 21 6.23076 20.7686 5.20002 20.3059C4.16928 19.8433 3.26795 19.2117 2.49616 18.4113C1.72437 17.611 1.1154 16.6763 0.669249 15.6074C0.223081 14.5384 0 13.3977 0 12.1852C0 10.9727 0.223081 9.83193 0.669249 8.76295C1.1154 7.69404 1.72437 6.75939 2.49616 5.959C3.26795 5.15861 4.16928 4.52709 5.20002 4.06441C6.23076 3.60172 7.33076 3.37037 8.50003 3.37037C9.5013 3.37037 10.4657 3.54654 11.3933 3.89888C12.3208 4.25121 13.1821 4.75577 13.9769 5.41256L15.2231 4.12026L16.2769 5.21312L15.0308 6.50545C15.6641 7.32976 16.1507 8.22286 16.4904 9.18474C16.8301 10.1466 17 11.1468 17 12.1852C17 13.3977 16.7769 14.5384 16.3308 15.6074C15.8846 16.6763 15.2757 17.611 14.5039 18.4113C13.7321 19.2117 12.8308 19.8433 11.8 20.3059C10.7692 20.7686 9.66924 21 8.50003 21ZM8.50003 19.4444C10.4334 19.4444 12.0834 18.7358 13.4501 17.3185C14.8167 15.9012 15.5001 14.1901 15.5001 12.1852C15.5001 10.1802 14.8167 8.46912 13.4501 7.05183C12.0834 5.63455 10.4334 4.9259 8.50003 4.9259C6.56669 4.9259 4.91669 5.63455 3.55001 7.05183C2.18332 8.46912 1.49998 10.1802 1.49998 12.1852C1.49998 14.1901 2.18332 15.9012 3.55001 17.3185C4.91669 18.7358 6.56669 19.4444 8.50003 19.4444Z" fill="url(#paint0_linear_385_210)"/>
<defs>
<linearGradient id="paint0_linear_385_210" x1="8.5" y1="0" x2="8.5" y2="21" gradientUnits="userSpaceOnUse">
<stop stop-color="#FF7A00"/>
<stop offset="1" stop-color="#FBAC50"/>
</linearGradient>
</defs>
</svg>
