<svg width="36" height="36" viewBox="0 0 36 36" fill="none" xmlns="http://www.w3.org/2000/svg">
<rect width="36" height="36" fill="white"/>
<path d="M13.7884 4.12496V1.87504H22.2115V4.12496H13.7884ZM16.875 20.7115H19.1249V12.2885H16.875V20.7115ZM18 32.25C16.2461 32.25 14.5961 31.9153 13.05 31.2461C11.5039 30.5769 10.1519 29.6634 8.99422 28.5057C7.83655 27.348 6.9231 25.9961 6.25387 24.45C5.58462 22.9038 5.25 21.2539 5.25 19.5C5.25 17.7462 5.58462 16.0962 6.25387 14.55C6.9231 13.0039 7.83655 11.652 8.99422 10.4943C10.1519 9.33659 11.5039 8.42314 13.05 7.75391C14.5961 7.08466 16.2461 6.75004 18 6.75004C19.5019 6.75004 20.9485 7.00485 22.3399 7.51448C23.7312 8.0241 25.023 8.75391 26.2153 9.70391L28.0845 7.83469L29.6653 9.41543L27.7961 11.2847C28.7461 12.477 29.4759 13.7688 29.9855 15.1601C30.4951 16.5514 30.7499 17.9981 30.7499 19.5C30.7499 21.2539 30.4153 22.9038 29.7461 24.45C29.0768 25.9961 28.1634 27.348 27.0057 28.5057C25.848 29.6634 24.4961 30.5769 22.9499 31.2461C21.4038 31.9153 19.7538 32.25 18 32.25ZM18 30C20.9 30 23.375 28.975 25.425 26.925C27.475 24.875 28.5 22.4 28.5 19.5C28.5 16.6 27.475 14.125 25.425 12.075C23.375 10.025 20.9 9 18 9C15.1 9 12.625 10.025 10.575 12.075C8.52496 14.125 7.49996 16.6 7.49996 19.5C7.49996 22.4 8.52496 24.875 10.575 26.925C12.625 28.975 15.1 30 18 30Z" fill="#5F4022"/>
</svg>
