<svg width="106" height="34" viewBox="0 0 106 34" fill="none" xmlns="http://www.w3.org/2000/svg">
<path d="M0.124023 2.99601C0.124023 2.39601 0.352023 1.88001 0.808023 1.44801C1.28802 1.01601 1.86402 0.800013 2.53602 0.800013H18.844C18.844 2.24001 18.592 3.29601 18.088 3.96801C17.608 4.61601 16.816 4.94001 15.712 4.94001H4.94802V11.024H14.524C14.524 12.464 14.272 13.52 13.768 14.192C13.288 14.84 12.496 15.164 11.392 15.164H4.94802V22.904C4.94802 24.104 4.56402 24.98 3.79602 25.532C3.02802 26.06 1.80402 26.324 0.124023 26.324V2.99601Z" fill="white"/>
<path d="M24.5582 26.324C22.9982 26.324 21.5822 26.048 20.3102 25.496C19.0622 24.92 18.0782 24.128 17.3582 23.12C16.6382 22.112 16.2782 20.972 16.2782 19.7V14.624C16.2782 13.328 16.6262 12.152 17.3222 11.096C18.0422 10.04 19.0262 9.21201 20.2742 8.61201C21.5222 7.98801 22.9502 7.67601 24.5582 7.67601C26.1662 7.67601 27.5942 7.98801 28.8422 8.61201C30.1142 9.21201 31.0982 10.04 31.7942 11.096C32.5142 12.152 32.8742 13.328 32.8742 14.624V19.7C32.8742 20.972 32.5022 22.112 31.7582 23.12C31.0382 24.128 30.0422 24.92 28.7702 25.496C27.5222 26.048 26.1182 26.324 24.5582 26.324ZM24.5582 22.472C25.7582 22.472 26.6942 22.196 27.3662 21.644C28.0622 21.092 28.4102 20.348 28.4102 19.412V14.84C28.4102 13.856 28.0622 13.064 27.3662 12.464C26.6942 11.84 25.7582 11.528 24.5582 11.528C23.3822 11.528 22.4462 11.84 21.7502 12.464C21.0542 13.064 20.7062 13.856 20.7062 14.84V19.412C20.7062 20.348 21.0542 21.092 21.7502 21.644C22.4462 22.196 23.3822 22.472 24.5582 22.472Z" fill="white"/>
<path d="M43.0504 26.324C41.4904 26.324 40.0744 26.048 38.8024 25.496C37.5544 24.92 36.5704 24.128 35.8504 23.12C35.1304 22.112 34.7704 20.972 34.7704 19.7V14.624C34.7704 13.328 35.1184 12.152 35.8144 11.096C36.5344 10.04 37.5184 9.21201 38.7664 8.61201C40.0144 7.98801 41.4424 7.67601 43.0504 7.67601C44.6584 7.67601 46.0864 7.98801 47.3344 8.61201C48.6064 9.21201 49.5904 10.04 50.2864 11.096C51.0064 12.152 51.3664 13.328 51.3664 14.624V19.7C51.3664 20.972 50.9944 22.112 50.2504 23.12C49.5304 24.128 48.5344 24.92 47.2624 25.496C46.0144 26.048 44.6104 26.324 43.0504 26.324ZM43.0504 22.472C44.2504 22.472 45.1864 22.196 45.8584 21.644C46.5544 21.092 46.9024 20.348 46.9024 19.412V14.84C46.9024 13.856 46.5544 13.064 45.8584 12.464C45.1864 11.84 44.2504 11.528 43.0504 11.528C41.8744 11.528 40.9384 11.84 40.2424 12.464C39.5464 13.064 39.1984 13.856 39.1984 14.84V19.412C39.1984 20.348 39.5464 21.092 40.2424 21.644C40.9384 22.196 41.8744 22.472 43.0504 22.472Z" fill="white"/>
<path d="M60.6426 26.324C59.3466 26.324 58.1826 26.048 57.1506 25.496C56.1186 24.944 55.3026 24.188 54.7026 23.228C54.1026 22.244 53.8026 21.116 53.8026 19.844V14.156C53.8026 12.908 54.1146 11.792 54.7386 10.808C55.3626 9.82401 56.2266 9.05601 57.3306 8.50401C58.4586 7.95201 59.7066 7.67601 61.0746 7.67601C61.9626 7.67601 62.8746 7.86801 63.8106 8.25201C64.7706 8.61201 65.5746 9.10401 66.2226 9.72801L66.3666 9.54801C66.2466 9.35601 65.9826 9.11601 65.5746 8.82801V3.50002C65.5746 2.54001 65.9466 1.79601 66.6906 1.26801C67.4586 0.740013 68.6106 0.476013 70.1466 0.476013V23.228C70.1466 24.116 69.8106 24.86 69.1386 25.46C68.4666 26.036 67.4226 26.324 66.0066 26.324V24.344C66.3186 23.96 66.5466 23.648 66.6906 23.408L66.5106 23.264C65.7666 24.272 64.9386 25.04 64.0266 25.568C63.1386 26.072 62.0106 26.324 60.6426 26.324ZM61.9746 22.436C63.0546 22.436 63.9306 22.184 64.6026 21.68C65.2986 21.152 65.6466 20.492 65.6466 19.7V14.264C65.6466 13.496 65.2986 12.86 64.6026 12.356C63.9306 11.828 63.0426 11.564 61.9386 11.564C60.7626 11.564 59.8506 11.816 59.2026 12.32C58.5786 12.8 58.2666 13.496 58.2666 14.408V19.52C58.2666 20.48 58.5786 21.212 59.2026 21.716C59.8506 22.196 60.7746 22.436 61.9746 22.436Z" fill="white"/>
<path d="M76.138 11.348H73.258C73.258 10.196 73.426 9.35601 73.762 8.82801C74.098 8.27602 74.614 8.00002 75.31 8.00002H76.138V6.52401C76.138 4.79601 76.642 3.35601 77.65 2.20401C78.682 1.05201 80.194 0.476013 82.186 0.476013C83.506 0.476013 84.514 0.764013 85.21 1.34001C85.93 1.89201 86.29 2.52801 86.29 3.24801C86.29 3.58401 86.218 3.92001 86.074 4.25601C85.954 4.56801 85.774 4.83201 85.534 5.04801C84.694 4.59201 83.818 4.36401 82.906 4.36401C82.09 4.36401 81.502 4.55601 81.142 4.94001C80.782 5.30001 80.602 5.88801 80.602 6.70401V8.00002H85.282C85.282 9.20001 85.054 10.064 84.598 10.592C84.142 11.096 83.398 11.348 82.366 11.348H80.602V23.588C80.602 24.548 80.23 25.244 79.486 25.676C78.766 26.108 77.65 26.324 76.138 26.324V11.348Z" fill="white"/>
<path d="M90.6837 33.524C89.7477 33.524 89.0037 33.2 88.4517 32.552C87.9237 31.904 87.6597 30.968 87.6597 29.744C88.3797 29.864 88.9797 29.924 89.4597 29.924C90.3717 29.924 91.0917 29.684 91.6197 29.204C92.1717 28.724 92.7717 27.764 93.4197 26.324L93.9957 24.992L87.0477 8.03601C87.2157 7.94001 87.5037 7.85601 87.9117 7.78401C88.3437 7.71201 88.6917 7.67601 88.9557 7.67601C89.6517 7.67601 90.2877 7.83201 90.8637 8.14401C91.4397 8.43201 91.8357 8.84001 92.0517 9.36801L95.9037 19.484L95.2917 21.176L95.6157 21.284L100.26 9.36801C100.476 8.81601 100.86 8.39601 101.412 8.10801C101.988 7.82001 102.624 7.67601 103.32 7.67601C103.584 7.67601 103.92 7.71201 104.328 7.78401C104.76 7.85601 105.072 7.94001 105.264 8.03601L97.1997 27.62C96.3597 29.636 95.4357 31.124 94.4277 32.084C93.4437 33.044 92.1957 33.524 90.6837 33.524Z" fill="white"/>
</svg>
