<svg width="60" height="60" viewBox="0 0 60 60" fill="none" xmlns="http://www.w3.org/2000/svg">
<path d="M10.65 46.875C13.8 44.675 16.925 42.9875 20.025 41.8125C23.125 40.6375 26.45 40.05 30 40.05C33.55 40.05 36.8875 40.6375 40.0125 41.8125C43.1375 42.9875 46.275 44.675 49.425 46.875C51.625 44.175 53.1875 41.45 54.1125 38.7C55.0375 35.95 55.5 33.05 55.5 30C55.5 22.75 53.0625 16.6875 48.1875 11.8125C43.3125 6.9375 37.25 4.5 30 4.5C22.75 4.5 16.6875 6.9375 11.8125 11.8125C6.9375 16.6875 4.5 22.75 4.5 30C4.5 33.05 4.975 35.95 5.925 38.7C6.875 41.45 8.45 44.175 10.65 46.875ZM29.986 32.25C27.0953 32.25 24.6625 31.2579 22.6875 29.2736C20.7125 27.2893 19.725 24.8518 19.725 21.9611C19.725 19.0704 20.7172 16.6375 22.7015 14.6625C24.6858 12.6875 27.1233 11.7 30.014 11.7C32.9047 11.7 35.3375 12.6921 37.3125 14.6764C39.2875 16.6607 40.275 19.0982 40.275 21.9889C40.275 24.8796 39.2829 27.3125 37.2986 29.2875C35.3143 31.2625 32.8767 32.25 29.986 32.25ZM30.0351 60C25.9117 60 22.025 59.2125 18.375 57.6375C14.725 56.0625 11.5375 53.9125 8.8125 51.1875C6.0875 48.4625 3.9375 45.2808 2.3625 41.6425C0.7875 38.0042 0 34.1167 0 29.98C0 25.8433 0.7875 21.9625 2.3625 18.3375C3.9375 14.7125 6.0875 11.5375 8.8125 8.8125C11.5375 6.0875 14.7191 3.9375 18.3574 2.3625C21.9957 0.7875 25.8832 0 30.0199 0C34.1566 0 38.0375 0.7875 41.6625 2.3625C45.2875 3.9375 48.4625 6.0875 51.1875 8.8125C53.9125 11.5375 56.0625 14.7133 57.6375 18.3399C59.2125 21.9665 60 25.8415 60 29.9649C60 34.0883 59.2125 37.975 57.6375 41.625C56.0625 45.275 53.9125 48.4625 51.1875 51.1875C48.4625 53.9125 45.2867 56.0625 41.6601 57.6375C38.0335 59.2125 34.1585 60 30.0351 60ZM30 55.5C32.75 55.5 35.4375 55.1 38.0625 54.3C40.6875 53.5 43.275 52.1 45.825 50.1C43.275 48.3 40.675 46.925 38.025 45.975C35.375 45.025 32.7 44.55 30 44.55C27.3 44.55 24.625 45.025 21.975 45.975C19.325 46.925 16.725 48.3 14.175 50.1C16.725 52.1 19.3125 53.5 21.9375 54.3C24.5625 55.1 27.25 55.5 30 55.5ZM30 27.75C31.7 27.75 33.0875 27.2125 34.1625 26.1375C35.2375 25.0625 35.775 23.675 35.775 21.975C35.775 20.275 35.2375 18.8875 34.1625 17.8125C33.0875 16.7375 31.7 16.2 30 16.2C28.3 16.2 26.9125 16.7375 25.8375 17.8125C24.7625 18.8875 24.225 20.275 24.225 21.975C24.225 23.675 24.7625 25.0625 25.8375 26.1375C26.9125 27.2125 28.3 27.75 30 27.75Z" fill="white"/>
</svg>
