<svg width="54" height="54" viewBox="0 0 54 54" fill="none" xmlns="http://www.w3.org/2000/svg">
<path d="M9.80004 42C12.6 40.0445 15.3778 38.5445 18.1334 37.5C20.8889 36.4556 23.8445 35.9334 27 35.9334C30.1556 35.9334 33.1223 36.4556 35.9 37.5C38.6778 38.5445 41.4667 40.0445 44.2667 42C46.2223 39.6 47.6112 37.1778 48.4334 34.7334C49.2556 32.2889 49.6667 29.7112 49.6667 27C49.6667 20.5556 47.5 15.1667 43.1667 10.8334C38.8334 6.50004 33.4445 4.33337 27 4.33337C20.5556 4.33337 15.1667 6.50004 10.8334 10.8334C6.50004 15.1667 4.33337 20.5556 4.33337 27C4.33337 29.7112 4.7556 32.2889 5.60004 34.7334C6.44448 37.1778 7.84448 39.6 9.80004 42ZM26.9876 29C24.4181 29 22.2556 28.1181 20.5 26.3543C18.7445 24.5905 17.8667 22.4238 17.8667 19.8543C17.8667 17.2848 18.7486 15.1223 20.5124 13.3667C22.2763 11.6112 24.4429 10.7334 27.0124 10.7334C29.582 10.7334 31.7445 11.6153 33.5 13.3791C35.2556 15.1429 36.1334 17.3096 36.1334 19.8791C36.1334 22.4486 35.2515 24.6112 33.4876 26.3667C31.7238 28.1223 29.5572 29 26.9876 29ZM27.0312 53.6667C23.366 53.6667 19.9112 52.9667 16.6667 51.5667C13.4223 50.1667 10.5889 48.2556 8.16671 45.8334C5.74448 43.4112 3.83337 40.583 2.43337 37.349C1.03337 34.1149 0.333374 30.6594 0.333374 26.9823C0.333374 23.3052 1.03337 19.8556 2.43337 16.6334C3.83337 13.4112 5.74448 10.5889 8.16671 8.16671C10.5889 5.74448 13.4171 3.83337 16.6511 2.43337C19.8852 1.03337 23.3407 0.333374 27.0178 0.333374C30.6948 0.333374 34.1445 1.03337 37.3667 2.43337C40.5889 3.83337 43.4112 5.74448 45.8334 8.16671C48.2556 10.5889 50.1667 13.4119 51.5667 16.6355C52.9667 19.8592 53.6667 23.3036 53.6667 26.9688C53.6667 30.6341 52.9667 34.0889 51.5667 37.3334C50.1667 40.5778 48.2556 43.4112 45.8334 45.8334C43.4112 48.2556 40.5882 50.1667 37.3646 51.5667C34.1409 52.9667 30.6965 53.6667 27.0312 53.6667ZM27 49.6667C29.4445 49.6667 31.8334 49.3112 34.1667 48.6C36.5 47.8889 38.8 46.6445 41.0667 44.8667C38.8 43.2667 36.4889 42.0445 34.1334 41.2C31.7778 40.3556 29.4 39.9334 27 39.9334C24.6 39.9334 22.2223 40.3556 19.8667 41.2C17.5112 42.0445 15.2 43.2667 12.9334 44.8667C15.2 46.6445 17.5 47.8889 19.8334 48.6C22.1667 49.3112 24.5556 49.6667 27 49.6667ZM27 25C28.5112 25 29.7445 24.5223 30.7 23.5667C31.6556 22.6112 32.1334 21.3778 32.1334 19.8667C32.1334 18.3556 31.6556 17.1223 30.7 16.1667C29.7445 15.2112 28.5112 14.7334 27 14.7334C25.4889 14.7334 24.2556 15.2112 23.3 16.1667C22.3445 17.1223 21.8667 18.3556 21.8667 19.8667C21.8667 21.3778 22.3445 22.6112 23.3 23.5667C24.2556 24.5223 25.4889 25 27 25Z" fill="#81562C"/>
</svg>
