<svg width="19" height="19" viewBox="0 0 19 19" fill="none" xmlns="http://www.w3.org/2000/svg">
<path d="M12.95 10.175L8.7 5.925C8.6 5.825 8.52917 5.71667 8.4875 5.6C8.44583 5.48333 8.425 5.35833 8.425 5.225C8.425 5.09167 8.44583 4.96667 8.4875 4.85C8.52917 4.73333 8.6 4.625 8.7 4.525L12.95 0.275C13.05 0.175 13.1583 0.104167 13.275 0.0625C13.3917 0.0208333 13.5167 0 13.65 0C13.7833 0 13.9083 0.0208333 14.025 0.0625C14.1417 0.104167 14.25 0.175 14.35 0.275L18.6 4.525C18.7 4.625 18.7708 4.73333 18.8125 4.85C18.8542 4.96667 18.875 5.09167 18.875 5.225C18.875 5.35833 18.8542 5.48333 18.8125 5.6C18.7708 5.71667 18.7 5.825 18.6 5.925L14.35 10.175C14.25 10.275 14.1417 10.3458 14.025 10.3875C13.9083 10.4292 13.7833 10.45 13.65 10.45C13.5167 10.45 13.3917 10.4292 13.275 10.3875C13.1583 10.3458 13.05 10.275 12.95 10.175ZM0 7.875V1.875C0 1.59167 0.0958333 1.35417 0.2875 1.1625C0.479167 0.970833 0.716667 0.875 1 0.875H7C7.28333 0.875 7.52083 0.970833 7.7125 1.1625C7.90417 1.35417 8 1.59167 8 1.875V7.875C8 8.15833 7.90417 8.39583 7.7125 8.5875C7.52083 8.77917 7.28333 8.875 7 8.875H1C0.716667 8.875 0.479167 8.77917 0.2875 8.5875C0.0958333 8.39583 0 8.15833 0 7.875ZM10 17.875V11.875C10 11.5917 10.0958 11.3542 10.2875 11.1625C10.4792 10.9708 10.7167 10.875 11 10.875H17C17.2833 10.875 17.5208 10.9708 17.7125 11.1625C17.9042 11.3542 18 11.5917 18 11.875V17.875C18 18.1583 17.9042 18.3958 17.7125 18.5875C17.5208 18.7792 17.2833 18.875 17 18.875H11C10.7167 18.875 10.4792 18.7792 10.2875 18.5875C10.0958 18.3958 10 18.1583 10 17.875ZM0 17.875V11.875C0 11.5917 0.0958333 11.3542 0.2875 11.1625C0.479167 10.9708 0.716667 10.875 1 10.875H7C7.28333 10.875 7.52083 10.9708 7.7125 11.1625C7.90417 11.3542 8 11.5917 8 11.875V17.875C8 18.1583 7.90417 18.3958 7.7125 18.5875C7.52083 18.7792 7.28333 18.875 7 18.875H1C0.716667 18.875 0.479167 18.7792 0.2875 18.5875C0.0958333 18.3958 0 18.1583 0 17.875ZM2 6.875H6V2.875H2V6.875ZM13.675 8.075L16.5 5.25L13.675 2.425L10.85 5.25L13.675 8.075ZM12 16.875H16V12.875H12V16.875ZM2 16.875H6V12.875H2V16.875Z" fill="#5F4022"/>
</svg>
