<svg width="36" height="36" viewBox="0 0 36 36" fill="none" xmlns="http://www.w3.org/2000/svg">
<path d="M21.8208 8.11617C23.3172 8.40756 24.6923 9.13797 25.7703 10.2139C26.8484 11.2899 27.5802 12.6624 27.8721 14.1559M21.8208 2C24.9296 2.3447 27.8286 3.7342 30.0418 5.94036C32.2549 8.14651 33.6507 11.0382 34 14.1406M32.468 26.3424V30.9295C32.4698 31.3553 32.3824 31.7769 32.2114 32.167C32.0405 32.5572 31.7898 32.9075 31.4754 33.1953C31.161 33.4832 30.7899 33.7024 30.3857 33.8388C29.9815 33.9752 29.5533 34.0259 29.1283 33.9876C24.4142 33.4763 19.8859 31.8686 15.9074 29.2934C12.2059 26.9458 9.06768 23.8136 6.71559 20.1192C4.12652 16.1302 2.51529 11.5886 2.01243 6.86236C1.97415 6.43953 2.0245 6.01337 2.16027 5.61103C2.29604 5.20868 2.51426 4.83896 2.80104 4.5254C3.08782 4.21184 3.43687 3.96132 3.82597 3.78978C4.21507 3.61824 4.63569 3.52944 5.06106 3.52904H9.65697C10.4004 3.52174 11.1212 3.78451 11.6849 4.26839C12.2487 4.75226 12.6169 5.42421 12.7209 6.159C12.9149 7.62698 13.2746 9.06835 13.7933 10.4556C13.9994 11.0029 14.044 11.5977 13.9218 12.1695C13.7997 12.7413 13.5158 13.2662 13.1039 13.6819L11.1583 15.6238C13.3392 19.4518 16.5148 22.6214 20.3501 24.798L22.2957 22.8562C22.7123 22.445 23.2381 22.1617 23.811 22.0398C24.3839 21.9178 24.9799 21.9624 25.5282 22.1681C26.9181 22.6857 28.3622 23.0448 29.833 23.2384C30.5772 23.3432 31.2569 23.7173 31.7427 24.2896C32.2285 24.8619 32.4867 25.5925 32.468 26.3424Z" stroke="white" stroke-width="3" stroke-linecap="round" stroke-linejoin="round"/>
</svg>
