<svg width="38" height="38" viewBox="0 0 38 38" fill="none" xmlns="http://www.w3.org/2000/svg">
<path d="M36.9999 18C37.0068 20.6398 36.3901 23.2438 35.1999 25.6C33.7888 28.4235 31.6195 30.7984 28.9349 32.4586C26.2503 34.1188 23.1564 34.9988 20 35C17.3602 35.0069 14.7562 34.3901 12.4 33.2L1 37L4.79999 25.6C3.60986 23.2438 2.99311 20.6398 3 18C3.00122 14.8435 3.88122 11.7497 5.54143 9.06514C7.20164 6.38055 9.5765 4.21119 12.4 2.80005C14.7562 1.60992 17.3602 0.993174 20 1.00006H21C25.1687 1.23004 29.106 2.98958 32.0582 5.94177C35.0104 8.89396 36.77 12.8313 36.9999 17V18Z" stroke="white" stroke-width="2" stroke-linecap="round" stroke-linejoin="round"/>
</svg>
