<svg width="173" height="149" viewBox="0 0 173 149" fill="none" xmlns="http://www.w3.org/2000/svg">
<g style="mix-blend-mode:darken" filter="url(#filter0_d_71_291)">
<path fill-rule="evenodd" clip-rule="evenodd" d="M40.7731 44.1804C40.636 44.6582 40.1562 44.9454 39.6968 44.8101L38.8651 44.5656C38.4057 44.4308 38.1411 43.9248 38.2779 43.4475C46.9307 13.2473 71.8618 1.25391 93.009 5.56508C103.676 7.73941 113.383 14.0674 119.488 24.281C125.493 34.3276 127.94 48.0092 124.554 64.9495C124.456 65.4373 123.994 65.7495 123.527 65.6441L122.683 65.4533C122.216 65.348 121.922 64.8649 122.02 64.3771C125.287 48.0028 122.873 35.0655 117.285 25.7172C111.593 16.1931 102.531 10.2643 92.5039 8.22013C72.6644 4.17565 49.0478 15.3558 40.7731 44.1804ZM33.9793 112.886C19.0647 107.69 11.1963 99.5152 8.07739 90.9696C4.8223 82.0519 6.62889 72.4346 11.4723 64.7949C16.3221 57.146 24.1253 51.6264 32.6548 50.8261C40.9368 50.0488 50.1481 53.7004 58.2454 64.7045C58.5356 65.099 59.0789 65.185 59.4626 64.8876L60.1579 64.3492C60.5421 64.0518 60.6215 63.4839 60.3317 63.089C51.7831 51.4549 41.7532 47.2571 32.4301 48.1319C22.9856 49.0182 14.5203 55.0891 9.3098 63.3079C4.09292 71.5355 2.04786 82.0623 5.6524 91.9384C9.20891 101.683 18.1591 110.509 34.3278 115.852C34.6997 115.975 34.9529 116.342 34.9381 116.749L34.2041 137L34.18 137.666C34.1568 138.303 34.7589 138.762 35.3348 138.545L35.9366 138.32C67.7771 126.365 86.9713 124.188 123.182 127.119C123.425 127.139 123.644 126.95 123.664 126.696C123.683 126.451 123.884 126.264 124.121 126.272L124.341 126.28C124.712 126.294 125.024 125.991 125.038 125.604L125.591 110.356C125.605 109.982 125.97 109.748 126.288 109.881L126.171 113.13C139.68 113.62 149.619 108.752 156.067 101.096C162.478 93.4833 165.299 83.2796 164.936 73.2949C164.573 63.313 161.022 53.3842 154.481 46.292C147.898 39.1545 138.366 34.9864 126.327 36.4789L126.725 40.0605C137.694 38.7007 146.153 42.4748 151.984 48.7968C157.857 55.1636 161.143 64.2106 161.479 73.4426C161.815 82.6715 159.197 91.9205 153.471 98.7201C147.909 105.325 139.282 109.778 127.141 109.548C128.94 106.175 129.86 103.052 129.902 100.205C129.947 97.1477 128.977 94.4924 127.143 92.3062C123.546 88.0171 116.772 85.6834 108.264 85.0145C91.2277 83.6751 65.9882 88.9123 40.4198 101.062C40.3163 101.111 40.2037 101.139 40.0902 101.143C35.2997 101.307 30.8845 100.774 27.5359 99.0674C24.3895 97.4644 22.1251 94.8028 21.3791 90.4375C21.2952 89.9476 20.8666 89.5968 20.3923 89.6591L19.5342 89.7719C19.0599 89.8341 18.7208 90.287 18.8012 90.7777C19.6704 96.0995 22.4925 99.5122 26.3913 101.499C30.4106 103.547 35.5002 104.047 40.6145 103.829L40.6995 103.826C40.8121 103.821 40.9226 103.793 41.0252 103.744L41.1027 103.707C66.5437 91.5494 91.5062 86.4104 108.061 87.7121C116.393 88.3674 122.284 90.6285 125.188 94.0907C126.605 95.7799 127.344 97.7893 127.308 100.172C127.299 100.833 127.229 101.528 127.095 102.259C126.916 103.226 125.857 103.006 125.893 102.022L126.075 97.015C126.093 96.5171 125.721 96.0998 125.243 96.0825L124.379 96.0512C123.902 96.0339 123.5 96.4231 123.482 96.921L122.522 123.411C122.503 123.923 122.071 124.316 121.581 124.279C87.3465 121.63 68.0263 123.73 38.0771 134.659C37.501 134.87 36.8936 134.414 36.9167 133.779L37.9153 106.227C37.9334 105.73 37.5613 105.312 37.0839 105.295L36.2197 105.264C35.7427 105.246 35.341 105.636 35.3229 106.133L35.1078 112.068C35.0862 112.664 34.5218 113.076 33.9793 112.886Z" fill="#2E1A16"/>
<path d="M126.288 109.881L128.017 109.944L128.062 108.68L126.939 108.208L126.288 109.881ZM126.171 113.13L124.442 113.067L124.377 114.87L126.105 114.932L126.171 113.13ZM126.327 36.4789L126.128 34.6881L124.41 34.9011L124.609 36.6919L126.327 36.4789ZM126.725 40.0605L125.007 40.274L125.206 42.0648L126.924 41.8518L126.725 40.0605ZM127.141 109.548L125.631 108.676L124.233 111.297L127.105 111.351L127.141 109.548ZM26.3913 101.499L25.6282 103.12L25.6282 103.12L26.3913 101.499ZM41.0252 103.744L40.3089 102.105L40.3084 102.105L41.0252 103.744ZM39.2229 46.5463C40.6253 46.9585 42.0311 46.0814 42.4297 44.693L39.1165 43.6683C39.2408 43.2351 39.6866 42.9318 40.1708 43.0744L39.2229 46.5463ZM38.3912 46.3018L39.2229 46.5463L40.1708 43.0744L39.339 42.8299L38.3912 46.3018ZM36.6208 42.9358C36.2092 44.3724 36.9999 45.8927 38.3912 46.3018L39.339 42.8299C39.8116 42.9689 40.0726 43.4778 39.9349 43.9587L36.6208 42.9358ZM93.3461 3.79506C71.3349 -0.692268 45.5322 11.8327 36.6208 42.9358L39.9349 43.9587C48.3288 14.662 72.3883 3.20008 92.6723 7.33513L93.3461 3.79506ZM120.956 23.3235C114.577 12.6497 104.44 6.05657 93.3461 3.79506L92.6723 7.33513C102.913 9.42271 112.189 15.4847 118.019 25.2384L120.956 23.3235ZM126.247 65.3122C129.707 48.0028 127.237 33.8313 120.956 23.3235L118.019 25.2384C123.749 34.8239 126.173 48.015 122.861 64.5867L126.247 65.3122ZM123.157 67.4071C124.56 67.7237 125.952 66.7869 126.247 65.3122L122.861 64.5867C122.96 64.0877 123.429 63.7753 123.898 63.8816L123.157 67.4071ZM122.312 67.2163L123.157 67.4071L123.898 63.8816L123.054 63.6909L122.312 67.2163ZM120.327 64.0148C120.04 65.4496 120.9 66.897 122.312 67.2163L123.054 63.6909C123.533 63.7989 123.805 64.2803 123.713 64.7394L120.327 64.0148ZM115.817 26.6742C121.129 35.5623 123.52 48.01 120.327 64.0148L123.713 64.7394C127.054 47.996 124.617 34.5688 118.753 24.7597L115.817 26.6742ZM92.1672 9.99018C101.768 11.9476 110.399 17.6103 115.817 26.6742L118.753 24.7597C112.786 14.7758 103.295 8.58107 92.8406 6.45011L92.1672 9.99018ZM42.4297 44.693C50.4454 16.7709 73.1905 6.1218 92.1672 9.99018L92.8406 6.45011C72.1379 2.2295 47.6506 13.9408 39.1165 43.6683L42.4297 44.693ZM6.46061 91.6153C9.81209 100.798 18.1694 109.281 33.4267 114.597L34.5319 111.175C19.96 106.098 12.5801 98.2316 9.69381 90.3235L6.46061 91.6153ZM10.0308 63.8033C4.93826 71.8355 2.97297 82.0593 6.46061 91.6153L9.69381 90.3235C6.67212 82.0445 8.31959 73.0333 12.9143 65.7866L10.0308 63.8033ZM32.5049 49.0298C23.3659 49.8875 15.1211 55.7746 10.0308 63.8033L12.9143 65.7866C17.5232 58.5174 24.8847 53.3658 32.8047 52.6223L32.5049 49.0298ZM59.6187 63.6037C51.2228 52.1949 41.4702 48.1885 32.5049 49.0298L32.8047 52.6223C40.4039 51.9092 49.0729 55.2063 56.8721 65.8053L59.6187 63.6037ZM58.4344 63.4412C58.831 63.1339 59.3519 63.2412 59.6187 63.6037L56.8721 65.8053C57.7198 66.9572 59.3265 67.2365 60.4914 66.3344L58.4344 63.4412ZM59.1297 62.9024L58.4344 63.4412L60.4909 66.3344L61.1862 65.7961L59.1297 62.9024ZM58.9576 64.1889C58.6554 63.7777 58.7442 63.2011 59.1297 62.9024L61.1862 65.7961C62.3396 64.903 62.5877 63.1902 61.7054 61.9891L58.9576 64.1889ZM32.5801 49.9282C41.2176 49.1173 50.7063 52.959 58.9576 64.1889L61.7054 61.9891C52.8604 49.9513 42.2883 45.3963 32.2802 46.3357L32.5801 49.9282ZM10.7518 64.2991C15.7218 56.4601 23.7458 50.7572 32.5801 49.9282L32.2802 46.3357C22.2257 47.2788 13.3192 53.7186 7.86787 62.3162L10.7518 64.2991ZM7.26878 91.2927C3.89763 82.0558 5.78358 72.135 10.7518 64.2991L7.86787 62.3162C2.40272 70.9359 0.19767 82.0692 4.03559 92.5846L7.26878 91.2927ZM34.8548 114.133C19.0285 108.903 10.5864 100.382 7.26878 91.2927L4.03559 92.5846C7.8318 102.985 17.2897 112.116 33.8008 117.571L34.8548 114.133ZM36.6664 116.812C36.7112 115.576 35.9488 114.494 34.8548 114.133L33.8008 117.571C33.4511 117.456 33.1946 117.108 33.2099 116.686L36.6664 116.812ZM35.9324 137.063L36.6664 116.812L33.2099 116.686L32.4758 136.938L35.9324 137.063ZM35.9083 137.728L35.9324 137.063L32.4758 136.938L32.4517 137.603L35.9083 137.728ZM34.7534 136.849C35.3297 136.633 35.9314 137.091 35.9083 137.728L32.4517 137.603C32.3824 139.516 34.1877 140.891 35.9166 140.242L34.7534 136.849ZM35.3552 136.623L34.7534 136.849L35.9166 140.242L36.518 140.016L35.3552 136.623ZM123.321 125.321C86.9008 122.373 67.4572 124.571 35.3552 136.623L36.518 140.016C68.0976 128.161 87.0418 126.003 123.043 128.917L123.321 125.321ZM121.94 126.555C122 125.786 122.642 125.266 123.321 125.321L123.043 128.917C124.207 129.011 125.288 128.114 125.388 126.837L121.94 126.555ZM124.186 124.47C123.024 124.428 122.034 125.347 121.94 126.555L125.388 126.837C125.331 127.554 124.744 128.1 124.055 128.075L124.186 124.47ZM124.406 124.478L124.186 124.47L124.055 128.075L124.276 128.083L124.406 124.478ZM123.31 125.541C123.332 124.933 123.823 124.457 124.406 124.478L124.276 128.083C125.601 128.131 126.716 127.049 126.767 125.667L123.31 125.541ZM123.863 110.293L123.31 125.541L126.767 125.667L127.319 110.418L123.863 110.293ZM126.939 108.208C125.533 107.618 123.923 108.643 123.863 110.293L127.319 110.418C127.287 111.322 126.407 111.877 125.638 111.554L126.939 108.208ZM127.899 113.193L128.017 109.944L124.56 109.818L124.442 113.067L127.899 113.193ZM154.769 99.9082C148.701 107.114 139.283 111.8 126.236 111.328L126.105 114.932C140.078 115.439 150.538 110.39 157.365 102.284L154.769 99.9082ZM163.207 73.3685C163.557 82.976 160.838 92.7019 154.769 99.9082L157.365 102.284C164.118 94.2642 167.041 83.5837 166.664 73.2209L163.207 73.3685ZM153.232 47.5444C159.44 54.2739 162.858 63.7616 163.207 73.3685L166.664 73.2209C166.287 62.8643 162.605 52.4945 155.729 45.0396L153.232 47.5444ZM126.526 38.2697C138.03 36.8436 147.026 40.8149 153.232 47.5444L155.729 45.0396C148.77 37.4946 138.702 33.1293 126.128 34.6881L126.526 38.2697ZM128.443 39.8476L128.045 36.266L124.609 36.6919L125.007 40.274L128.443 39.8476ZM153.232 47.5444C147.026 40.8149 138.03 36.8436 126.526 38.2697L126.924 41.8518C137.358 40.5579 145.281 44.1348 150.736 50.0488L153.232 47.5444ZM163.207 73.3685C162.858 63.7616 159.44 54.2739 153.232 47.5444L150.736 50.0488C156.274 56.0533 159.429 64.6597 159.751 73.5162L163.207 73.3685ZM154.769 99.9082C160.838 92.7019 163.557 82.976 163.207 73.3685L159.751 73.5162C160.073 82.3674 157.557 91.1391 152.173 97.5324L154.769 99.9082ZM127.105 111.351C139.705 111.59 148.838 106.95 154.769 99.9082L152.173 97.5324C146.98 103.699 138.86 107.966 127.178 107.745L127.105 111.351ZM128.173 100.183C128.137 102.646 127.336 105.476 125.631 108.676L128.653 110.421C130.544 106.874 131.584 103.457 131.632 100.227L128.173 100.183ZM125.84 93.4957C127.396 95.351 128.211 97.5757 128.173 100.183L131.632 100.227C131.684 96.7202 130.558 93.6343 128.446 91.1167L125.84 93.4957ZM108.129 86.8131C116.519 87.4727 122.705 89.758 125.84 93.4957L128.446 91.1167C124.387 86.2766 117.024 83.8941 108.399 83.216L108.129 86.8131ZM41.133 102.702C66.5279 90.6356 91.4699 85.5031 108.129 86.8131L108.399 83.216C90.9855 81.847 65.4484 87.189 39.7066 99.4211L41.133 102.702ZM40.1417 102.945C40.4882 102.934 40.8253 102.849 41.133 102.702L39.7066 99.4211C39.8074 99.3728 39.9196 99.3444 40.0388 99.3401L40.1417 102.945ZM26.7728 100.688C30.4936 102.584 35.2416 103.113 40.1421 102.945L40.0388 99.3401C35.3579 99.5008 31.2755 98.9634 28.299 97.4464L26.7728 100.688ZM19.6762 90.7593C20.5258 95.728 23.1672 98.8513 26.7728 100.688L28.299 97.4464C25.6122 96.0775 23.7248 93.8776 23.0819 90.1162L19.6762 90.7593ZM20.6035 91.4485C20.1062 91.5139 19.743 91.1497 19.6762 90.7593L23.0819 90.1162C22.8474 88.7455 21.627 87.6797 20.1816 87.8696L20.6035 91.4485ZM19.7454 91.5613L20.6035 91.4485L20.1816 87.8696L19.3231 87.9824L19.7454 91.5613ZM20.5062 90.4695C20.6 91.0445 20.1997 91.5015 19.7454 91.5613L19.3231 87.9824C17.9207 88.1667 16.8421 89.5295 17.0963 91.0858L20.5062 90.4695ZM27.1544 99.878C23.7242 98.1302 21.277 95.1876 20.5062 90.4695L17.0963 91.0858C18.0643 97.0114 21.2609 100.895 25.6282 103.12L27.1544 99.878ZM40.5492 102.028C35.5415 102.241 30.7927 101.732 27.1544 99.878L25.6282 103.12C30.0286 105.362 35.4594 105.854 40.6799 105.631L40.5492 102.028ZM40.6341 102.024L40.5492 102.028L40.6799 105.631L40.7648 105.628L40.6341 102.024ZM40.3084 102.105C40.411 102.056 40.5219 102.028 40.6341 102.024L40.7648 105.628C41.1024 105.613 41.4342 105.53 41.7419 105.383L40.3084 102.105ZM40.3864 102.068L40.3089 102.105L41.7419 105.383L41.8194 105.347L40.3864 102.068ZM108.196 85.9136C91.2627 84.5823 66.0013 89.8274 40.3864 102.068L41.8194 105.347C67.0861 93.2719 91.7502 88.2389 107.926 89.5107L108.196 85.9136ZM126.491 92.9012C123.125 88.8876 116.645 86.5781 108.196 85.9136L107.926 89.5107C116.14 90.1563 121.443 92.369 123.885 95.2802L126.491 92.9012ZM129.038 100.194C129.08 97.3617 128.186 94.9217 126.491 92.9012L123.885 95.2802C125.024 96.6385 125.607 98.2172 125.579 100.149L129.038 100.194ZM128.793 102.593C128.945 101.768 129.026 100.968 129.038 100.194L125.579 100.149C125.571 100.698 125.513 101.288 125.396 101.924L128.793 102.593ZM124.165 101.96C124.122 103.151 124.798 104.384 126.08 104.643C126.697 104.767 127.354 104.62 127.883 104.192C128.408 103.769 128.686 103.172 128.793 102.593L125.396 101.924C125.413 101.828 125.493 101.567 125.77 101.344C126.051 101.116 126.413 101.034 126.747 101.101C127.465 101.246 127.629 101.877 127.621 102.085L124.165 101.96ZM124.346 96.9524L124.165 101.96L127.621 102.085L127.803 97.0777L124.346 96.9524ZM125.178 97.8849C124.701 97.8676 124.328 97.4498 124.346 96.9524L127.803 97.0777C127.857 95.5843 126.74 94.3319 125.308 94.28L125.178 97.8849ZM124.314 97.8536L125.178 97.8849L125.308 94.28L124.444 94.2487L124.314 97.8536ZM125.21 96.9837C125.192 97.4816 124.791 97.8709 124.314 97.8536L124.444 94.2487C123.013 94.1968 121.808 95.3651 121.754 96.8584L125.21 96.9837ZM124.25 123.474L125.21 96.9837L121.754 96.8584L120.794 123.348L124.25 123.474ZM121.448 126.077C122.89 126.189 124.194 125.036 124.25 123.474L120.794 123.348C120.813 122.81 121.251 122.444 121.714 122.48L121.448 126.077ZM38.6441 136.361C68.335 125.526 87.4123 123.444 121.448 126.077L121.714 122.48C87.2803 119.816 67.7176 121.934 37.5102 132.957L38.6441 136.361ZM35.1884 133.716C35.1181 135.656 36.9508 136.979 38.6441 136.361L37.5102 132.957C38.0512 132.759 38.6692 133.173 38.645 133.841L35.1884 133.716ZM36.1871 106.165L35.1884 133.716L38.645 133.841L39.6436 106.29L36.1871 106.165ZM37.0186 107.097C36.5416 107.08 36.169 106.663 36.1871 106.165L39.6436 106.29C39.6978 104.797 38.5811 103.544 37.1492 103.492L37.0186 107.097ZM36.1544 107.066L37.0186 107.097L37.1492 103.492L36.2851 103.461L36.1544 107.066ZM37.0512 106.196C37.0332 106.694 36.6319 107.083 36.1544 107.066L36.2851 103.461C34.8536 103.409 33.6488 104.578 33.5947 106.071L37.0512 106.196ZM36.8361 112.13L37.0512 106.196L33.5947 106.071L33.3796 112.005L36.8361 112.13ZM33.4267 114.597C35.0728 115.171 36.7712 113.921 36.8361 112.13L33.3796 112.005C33.4013 111.407 33.9705 110.98 34.5319 111.175L33.4267 114.597Z" fill="#2E1A16"/>
</g>
<defs>
<filter id="filter0_d_71_291" x="0.106812" y="2.9109" width="172.589" height="145.494" filterUnits="userSpaceOnUse" color-interpolation-filters="sRGB">
<feFlood flood-opacity="0" result="BackgroundImageFix"/>
<feColorMatrix in="SourceAlpha" type="matrix" values="0 0 0 0 0 0 0 0 0 0 0 0 0 0 0 0 0 0 127 0" result="hardAlpha"/>
<feOffset dx="2" dy="4"/>
<feGaussianBlur stdDeviation="2"/>
<feComposite in2="hardAlpha" operator="out"/>
<feColorMatrix type="matrix" values="0 0 0 0 0 0 0 0 0 0 0 0 0 0 0 0 0 0 0.25 0"/>
<feBlend mode="normal" in2="BackgroundImageFix" result="effect1_dropShadow_71_291"/>
<feBlend mode="normal" in="SourceGraphic" in2="effect1_dropShadow_71_291" result="shape"/>
</filter>
</defs>
</svg>
