<svg width="30" height="30" viewBox="0 0 30 30" fill="none" xmlns="http://www.w3.org/2000/svg">
<path d="M14.1667 15.8333V21.6667C14.1667 21.9028 14.2466 22.1007 14.4066 22.2604C14.5665 22.4201 14.7647 22.5 15.0011 22.5C15.2376 22.5 15.4354 22.4201 15.5945 22.2604C15.7537 22.1007 15.8333 21.9028 15.8333 21.6667V15.8333H21.6667C21.9028 15.8333 22.1007 15.7534 22.2604 15.5934C22.4201 15.4335 22.5 15.2353 22.5 14.9989C22.5 14.7624 22.4201 14.5646 22.2604 14.4055C22.1007 14.2463 21.9028 14.1667 21.6667 14.1667H15.8333V8.33333C15.8333 8.09722 15.7534 7.89931 15.5934 7.73958C15.4335 7.57986 15.2353 7.5 14.9989 7.5C14.7624 7.5 14.5646 7.57986 14.4055 7.73958C14.2463 7.89931 14.1667 8.09722 14.1667 8.33333V14.1667H8.33333C8.09722 14.1667 7.89931 14.2466 7.73958 14.4066C7.57986 14.5665 7.5 14.7647 7.5 15.0011C7.5 15.2376 7.57986 15.4354 7.73958 15.5945C7.89931 15.7537 8.09722 15.8333 8.33333 15.8333H14.1667ZM15.0056 30C12.9313 30 10.9812 29.6064 9.15517 28.8192C7.32914 28.032 5.74074 26.9636 4.38996 25.6141C3.03921 24.2646 1.96986 22.6777 1.18192 20.8534C0.393972 19.0291 0 17.0798 0 15.0056C0 12.9313 0.393597 10.9812 1.18079 9.15517C1.96801 7.32914 3.03638 5.74074 4.38588 4.38996C5.73538 3.03921 7.32228 1.96986 9.14658 1.18192C10.9709 0.393973 12.9202 0 14.9944 0C17.0687 0 19.0188 0.393597 20.8448 1.18079C22.6709 1.96801 24.2593 3.03637 25.61 4.38587C26.9608 5.73537 28.0301 7.32228 28.8181 9.14658C29.606 10.9709 30 12.9202 30 14.9944C30 17.0687 29.6064 19.0188 28.8192 20.8448C28.032 22.6709 26.9636 24.2593 25.6141 25.61C24.2646 26.9608 22.6777 28.0301 20.8534 28.8181C19.0291 29.606 17.0798 30 15.0056 30ZM15 28.3333C18.7222 28.3333 21.875 27.0417 24.4583 24.4583C27.0417 21.875 28.3333 18.7222 28.3333 15C28.3333 11.2778 27.0417 8.125 24.4583 5.54167C21.875 2.95833 18.7222 1.66667 15 1.66667C11.2778 1.66667 8.125 2.95833 5.54167 5.54167C2.95833 8.125 1.66667 11.2778 1.66667 15C1.66667 18.7222 2.95833 21.875 5.54167 24.4583C8.125 27.0417 11.2778 28.3333 15 28.3333Z" fill="#19CE4C"/>
</svg>
