<svg width="36" height="7" viewBox="0 0 36 7" fill="none" xmlns="http://www.w3.org/2000/svg">
<path d="M0 3.5C0 4.46248 0.363672 5.28643 1.09102 5.97186C1.8184 6.65729 2.6928 7 3.71419 7C4.73563 7 5.61002 6.65729 6.33737 5.97186C7.06475 5.28643 7.42844 4.46248 7.42844 3.5C7.42844 2.53752 7.06475 1.71357 6.33737 1.02814C5.61002 0.342714 4.73563 0 3.71419 0C2.6928 0 1.8184 0.342714 1.09102 1.02814C0.363672 1.71357 0 2.53752 0 3.5ZM14.2857 3.5C14.2857 4.46248 14.6494 5.28643 15.3768 5.97186C16.1042 6.65729 16.9786 7 18 7C19.0214 7 19.8958 6.65729 20.6232 5.97186C21.3506 5.28643 21.7143 4.46248 21.7143 3.5C21.7143 2.53752 21.3506 1.71357 20.6232 1.02814C19.8958 0.342714 19.0214 0 18 0C16.9786 0 16.1042 0.342714 15.3768 1.02814C14.6494 1.71357 14.2857 2.53752 14.2857 3.5ZM28.5716 3.5C28.5716 4.46248 28.9353 5.28643 29.6626 5.97186C30.39 6.65729 31.2644 7 32.2858 7C33.3072 7 34.1816 6.65729 34.909 5.97186C35.6363 5.28643 36 4.46248 36 3.5C36 2.53752 35.6363 1.71357 34.909 1.02814C34.1816 0.342714 33.3072 0 32.2858 0C31.2644 0 30.39 0.342714 29.6626 1.02814C28.9353 1.71357 28.5716 2.53752 28.5716 3.5Z" fill="#D9D9D9"/>
</svg>
