<svg width="44" height="44" viewBox="0 0 44 44" fill="none" xmlns="http://www.w3.org/2000/svg">
<path d="M3.5998 44C2.59089 44 1.7387 43.6531 1.04322 42.9594C0.34774 42.2656 0 41.4155 0 40.4091V8.27963C0 7.27322 0.34774 6.42313 1.04322 5.72937C1.7387 5.03561 2.59089 4.68873 3.5998 4.68873H25.153L23.0689 6.76768H3.5998C3.22086 6.76768 2.87351 6.92517 2.55774 7.24015C2.24198 7.55514 2.0841 7.90163 2.0841 8.27963V40.4091C2.0841 40.7871 2.24198 41.1336 2.55774 41.4486C2.87351 41.7636 3.22086 41.921 3.5998 41.921H35.8089C36.1878 41.921 36.5351 41.7636 36.8509 41.4486C37.1667 41.1336 37.3245 40.7871 37.3245 40.4091V20.6872L39.4086 18.6083V40.4091C39.4086 41.4155 39.0609 42.2656 38.3654 42.9594C37.6699 43.6531 36.8178 44 35.8089 44H3.5998ZM14.7782 27.4629V24.3428C14.7782 23.8476 14.8772 23.3734 15.075 22.9201C15.2729 22.4668 15.5408 22.0717 15.8787 21.7346L37.1082 0.557542C37.3187 0.347555 37.5508 0.202144 37.8045 0.121311C38.0582 0.0404359 38.3276 0 38.6129 0C38.8697 0 39.1245 0.042014 39.3774 0.126042C39.6302 0.210029 39.859 0.351773 40.0639 0.551278L43.31 3.70908C43.5488 3.93893 43.7235 4.19506 43.8341 4.47749C43.9447 4.75992 44 5.04396 44 5.32963C44 5.61529 43.9564 5.88672 43.8692 6.14392C43.782 6.40108 43.6272 6.6426 43.4048 6.86848L22.0837 28.1873C21.7458 28.5033 21.3497 28.7608 20.8953 28.9598C20.4408 29.1588 19.9654 29.2583 19.4691 29.2583H16.5781C16.0603 29.2583 15.6308 29.0882 15.2898 28.748C14.9487 28.4078 14.7782 27.9794 14.7782 27.4629ZM16.8623 27.1793H20.1117L36.9172 10.4153L35.3036 8.78367L33.5116 7.08899L16.8623 23.6876V27.1793Z" fill="#2E1A16"/>
</svg>
