<svg width="15" height="15" viewBox="0 0 15 15" fill="none" xmlns="http://www.w3.org/2000/svg">
<path d="M7.435 11.8359L7.70204 12.0046L11.3644 14.3182L11.3695 14.3215L11.3695 14.3215C11.4389 14.3665 11.4867 14.3728 11.5266 14.3691C11.5971 14.3625 11.6475 14.3407 11.6921 14.305C11.749 14.2594 11.7948 14.2008 11.8296 14.1198C11.8472 14.0789 11.8577 14.0225 11.8355 13.9293L11.8337 13.922L11.8338 13.922L10.8608 9.55813L10.7975 9.27416L11.0131 9.0788L14.2455 6.1499C14.3184 6.08085 14.3473 6.0209 14.3591 5.96785C14.3768 5.88819 14.3721 5.82215 14.3511 5.75928C14.3278 5.68944 14.2911 5.63392 14.2363 5.58521L14.2362 5.58515C14.2027 5.55534 14.1516 5.52648 14.0595 5.51379L9.80561 5.12526L9.50181 5.09751L9.38751 4.81467L7.72674 0.705215C7.68752 0.611477 7.64535 0.573121 7.61297 0.553479C7.54791 0.514033 7.49118 0.5 7.435 0.5C7.37882 0.5 7.32209 0.514033 7.25703 0.553479C7.22465 0.573121 7.18248 0.611477 7.14326 0.705215L5.48249 4.81467L5.36819 5.09751L5.06439 5.12526L0.810458 5.51379C0.718376 5.52648 0.667292 5.55534 0.633725 5.58517C0.578892 5.63391 0.542209 5.68946 0.51888 5.7593L0.044641 5.60088L0.51888 5.7593C0.497899 5.8221 0.493198 5.88813 0.510891 5.96782L0.510897 5.96785C0.522655 6.02082 0.551565 6.08079 0.624465 6.1499L3.8569 9.0788L4.0725 9.27416L4.00919 9.55813L3.0362 13.922L3.03458 13.9292L3.03453 13.9292C3.01228 14.0225 3.02282 14.0789 3.04038 14.1198L7.435 11.8359ZM7.435 11.8359L7.16796 12.0046M7.435 11.8359L7.16796 12.0046M7.16796 12.0046L3.50558 14.3182L3.50556 14.3182M7.16796 12.0046L3.50556 14.3182M3.50556 14.3182L3.50052 14.3215M3.50556 14.3182L3.50052 14.3215M3.50052 14.3215C3.43106 14.3665 3.38334 14.3728 3.34339 14.3691M3.50052 14.3215L3.34339 14.3691M3.34339 14.3691C3.27291 14.3625 3.22245 14.3407 3.17787 14.305M3.34339 14.3691L3.17787 14.305M3.17787 14.305C3.121 14.2594 3.07519 14.2008 3.04039 14.1199L3.17787 14.305Z" fill="#FFE500" stroke="#5F4022"/>
</svg>
