<svg width="16" height="16" viewBox="0 0 16 16" fill="none" xmlns="http://www.w3.org/2000/svg">
<path d="M4.20396 13.7132L7.67924 11.522L11.1545 13.7377L10.2348 9.59112L13.2926 6.80978L9.2594 6.43642L7.67924 2.535L6.09908 6.4119L2.06589 6.78527L5.12363 9.57605L4.20396 13.7132ZM7.67924 12.8231L3.69644 15.3423C3.59566 15.3989 3.49309 15.4247 3.38871 15.4197C3.28433 15.4146 3.18954 15.3807 3.10434 15.3178C3.01917 15.255 2.95528 15.1723 2.91268 15.0699C2.87008 14.9674 2.86438 14.8533 2.89558 14.7276L3.94302 9.98334L0.438959 6.77961C0.344172 6.69665 0.28508 6.60143 0.261684 6.49395C0.238287 6.38647 0.242187 6.27993 0.273382 6.17434C0.298588 6.07503 0.352283 5.99143 0.434467 5.92354C0.516652 5.85566 0.617733 5.81669 0.73771 5.80664L5.37381 5.37861L7.17713 0.89075C7.22752 0.781387 7.29861 0.697788 7.39039 0.639952C7.48218 0.582133 7.57846 0.553223 7.67924 0.553223C7.78002 0.553223 7.8763 0.582133 7.96809 0.639952C8.05987 0.697788 8.13096 0.781387 8.18135 0.89075L9.98467 5.37861L14.6208 5.80664C14.7407 5.81669 14.8418 5.85566 14.924 5.92354C15.0062 5.99143 15.0629 6.07503 15.0941 6.17434C15.1193 6.27993 15.1202 6.38647 15.0968 6.49395C15.0734 6.60143 15.0143 6.69665 14.9195 6.77961L11.4155 9.98334L12.4719 14.7276C12.4971 14.8533 12.4884 14.9674 12.4458 15.0699C12.4032 15.1723 12.3393 15.255 12.2541 15.3178C12.1689 15.3807 12.0742 15.4146 11.9698 15.4197C11.8654 15.4247 11.7628 15.3989 11.662 15.3423L7.67924 12.8231Z" fill="#5F4022"/>
</svg>
