<svg width="15" height="15" viewBox="0 0 15 15" fill="none" xmlns="http://www.w3.org/2000/svg">
<path d="M7.435 12.4273L3.77262 14.7409C3.61956 14.8402 3.46104 14.8822 3.29705 14.8669C3.13307 14.8517 2.98912 14.7944 2.86522 14.6952C2.74132 14.5959 2.64657 14.4699 2.58098 14.3172C2.51538 14.1645 2.50445 13.9965 2.54818 13.8132L3.52117 9.44932L0.285156 6.51718C0.146678 6.38737 0.0592177 6.24037 0.022776 6.07619C-0.0136656 5.91205 -0.00637728 5.7536 0.044641 5.60088C0.0956591 5.44815 0.181297 5.31835 0.301555 5.21146C0.421812 5.10457 0.573044 5.03967 0.755251 5.01675L5.01891 4.62733L6.68068 0.515416C6.75354 0.339794 6.85924 0.209985 6.9977 0.125991C7.1362 0.0419971 7.28196 0 7.435 0C7.58804 0 7.7338 0.0419971 7.8723 0.125991C8.01076 0.209985 8.11646 0.339794 8.18932 0.515416L9.85109 4.62733L14.1147 5.01675C14.297 5.03967 14.4482 5.10457 14.5684 5.21146C14.6887 5.31835 14.7743 5.44815 14.8253 5.60088C14.8764 5.7536 14.8837 5.91205 14.8472 6.07619C14.8108 6.24037 14.7233 6.38737 14.5848 6.51718L11.3488 9.44932L12.3218 13.8132C12.3656 13.9965 12.3546 14.1645 12.289 14.3172C12.2234 14.4699 12.1287 14.5959 12.0048 14.6952C11.8809 14.7944 11.7369 14.8517 11.5729 14.8669C11.409 14.8822 11.2504 14.8402 11.0974 14.7409L7.435 12.4273Z" fill="#FFE500"/>
</svg>
