<svg width="24" height="24" viewBox="0 0 24 24" fill="none" xmlns="http://www.w3.org/2000/svg">
<g clip-path="url(#clip0_46_178)">
<path d="M22.4998 0.863525H1.31476C0.588418 0.863525 0 1.41609 0 2.09818V21.9934C0 22.6746 0.588418 23.2272 1.31476 23.2272H12.7209V14.5668H9.61712V11.1918H12.7209V8.70291C12.7209 5.81428 14.5993 4.24137 17.344 4.24137C18.6587 4.24137 19.7879 4.33362 20.1174 4.37462V7.39371L18.2142 7.39464C16.7218 7.39464 16.433 8.06089 16.433 9.03743V11.1927H19.9923L19.5289 14.5678H16.433V23.2272H22.5018C23.2262 23.2272 23.8146 22.6746 23.8146 21.9925V2.09818C23.8146 1.41609 23.2262 0.863525 22.4998 0.863525Z" fill="white"/>
</g>
<defs>
<clipPath id="clip0_46_178">
<rect width="23.8146" height="22.3636" fill="white" transform="translate(0 0.863525)"/>
</clipPath>
</defs>
</svg>
