<svg width="29" height="27" viewBox="0 0 29 27" fill="none" xmlns="http://www.w3.org/2000/svg">
<path d="M20.371 2.17432H8.79452C5.59775 2.17432 3.00626 4.60792 3.00626 7.60992V18.4811C3.00626 21.4831 5.59775 23.9167 8.79452 23.9167H20.371C23.5678 23.9167 26.1593 21.4831 26.1593 18.4811V7.60992C26.1593 4.60792 23.5678 2.17432 20.371 2.17432Z" stroke="white" stroke-width="2.33333" stroke-linecap="round" stroke-linejoin="round"/>
<path d="M19.2134 12.3605C19.3563 13.2653 19.1917 14.1893 18.7431 15.0012C18.2945 15.813 17.5847 16.4714 16.7147 16.8826C15.8447 17.2938 14.8588 17.437 13.8972 17.2916C12.9356 17.1463 12.0472 16.72 11.3585 16.0732C10.6698 15.4265 10.2158 14.5923 10.0611 13.6892C9.90633 12.7862 10.0588 11.8603 10.4966 11.0434C10.9345 10.2264 11.6356 9.55983 12.5001 9.13858C13.3647 8.71732 14.3487 8.56278 15.3121 8.69694C16.2949 8.83379 17.2047 9.26384 17.9072 9.92355C18.6097 10.5833 19.0677 11.4377 19.2134 12.3605Z" stroke="white" stroke-width="2.33333" stroke-linecap="round" stroke-linejoin="round"/>
<path d="M20.9499 7.06641H20.9615" stroke="white" stroke-width="2.33333" stroke-linecap="round" stroke-linejoin="round"/>
</svg>
