<svg width="33" height="23" viewBox="0 0 33 23" fill="none" xmlns="http://www.w3.org/2000/svg">
<path d="M1.21462 1.95469L1.1977 1.96131C0.968368 2.05112 0.80583 2.18988 0.690666 2.38271L1.21462 1.95469ZM1.21462 1.95469L1.23102 1.94685C2.25905 1.45545 3.33 1.09181 4.44467 0.855662C5.56365 0.618606 6.70092 0.5 7.85709 0.5C9.34085 0.5 10.7891 0.699096 12.2032 1.09712L12.2032 1.09713C13.6173 1.49511 14.9625 2.08258 16.2399 2.86059L16.5 3.01901L16.7601 2.86059C18.0374 2.08258 19.3827 1.49511 20.7967 1.09713L20.6613 0.615949L20.7967 1.09712C22.2108 0.699096 23.6591 0.5 25.1429 0.5C26.299 0.5 27.4363 0.618606 28.5553 0.855662C29.67 1.09181 30.7409 1.45545 31.7689 1.94685L31.7853 1.95469L31.8023 1.96131C32.0316 2.05113 32.1941 2.18989 32.3093 2.38274C32.4384 2.59891 32.5 2.82271 32.5 3.0627V19.8185C32.5 20.2542 32.329 20.5614 31.9493 20.7949C31.5686 21.0291 31.1901 21.0574 30.7575 20.8702C29.8787 20.4608 28.9676 20.1503 28.0248 19.9391C27.0791 19.7272 26.1182 19.6213 25.1429 19.6213C23.527 19.6213 21.9584 19.8805 20.4393 20.3989L20.6008 20.8721L20.4393 20.3989C19.0377 20.8773 17.7242 21.5404 16.5 22.3874C15.2757 21.5404 13.9623 20.8773 12.5606 20.3989L12.3991 20.8721M1.21462 1.95469L12.3991 20.8721M12.3991 20.8721L12.5606 20.3989C11.0416 19.8805 9.47296 19.6213 7.85709 19.6213M12.3991 20.8721L7.85709 19.6213M20.0522 15.7777C20.7071 15.4805 21.39 15.2429 22.1004 15.0646C23.0834 14.8178 24.0979 14.6948 25.1429 14.6948C25.8322 14.6948 26.4824 14.7419 27.0923 14.8374C27.0923 14.8374 27.0923 14.8374 27.0924 14.8374L27.015 15.3314L20.0522 15.7777ZM20.0522 15.7777V14.8475C20.7658 14.5391 21.5238 14.302 22.3272 14.137C23.2421 13.9491 24.1805 13.8549 25.1429 13.8549C25.7501 13.8549 26.3381 13.8973 26.907 13.9815C27.3595 14.0486 27.8136 14.1324 28.2692 14.2332V15.0924L20.0522 15.7777ZM7.85709 19.6213C6.86152 19.6213 5.88274 19.7297 4.92149 19.9466M7.85709 19.6213L4.92149 19.9466M4.92149 19.9466C3.96246 20.1631 3.03762 20.4816 2.14759 20.9018M4.92149 19.9466L2.14759 20.9018M2.14759 20.9018C1.74253 21.0839 1.39255 21.0548 1.03371 20.8182C0.669964 20.5784 0.5 20.2637 0.5 19.8185V3.0627C0.5 2.8227 0.561589 2.5989 0.690649 2.38274L2.14759 20.9018ZM28.2692 6.66403C27.8764 6.5554 27.4841 6.47029 27.0924 6.40894L27.0923 6.40894C26.4824 6.31345 25.8322 6.26642 25.1429 6.26642C24.0983 6.26642 23.0841 6.38827 22.1013 6.63289L22.2221 7.11809L22.1013 6.63289C21.3908 6.80979 20.7076 7.04247 20.0522 7.33108V6.42184C20.7832 6.11141 21.5444 5.87351 22.3363 5.70824C23.2348 5.52074 24.17 5.42646 25.1429 5.42646C25.7501 5.42646 26.3381 5.46885 26.907 5.55313C27.3595 5.62017 27.8136 5.70403 28.2692 5.80477V6.66403ZM15.0941 20.0503L15.8214 20.4217V19.605V4.43379V4.1601L15.5909 4.0126C14.4438 3.27874 13.2028 2.72869 11.8698 2.36243C10.5424 1.99769 9.20442 1.81481 7.85709 1.81481C6.88873 1.81481 5.97829 1.88946 5.12697 2.04061L5.12695 2.04061C4.2769 2.19156 3.40815 2.43729 2.52112 2.77574C2.34157 2.83652 2.14964 2.94394 2.01891 3.13654C1.91276 3.29293 1.85707 3.47223 1.85707 3.66217V18.2576C1.85707 18.535 1.96963 18.8112 2.23913 18.9832L2.23918 18.9833C2.48522 19.1403 2.76167 19.1507 3.01195 19.054C3.7264 18.8159 4.48254 18.6316 5.28097 18.5018C6.07945 18.3721 6.93785 18.3065 7.85709 18.3065C9.12112 18.3065 10.3488 18.4472 11.5412 18.728C12.7301 19.0079 13.9143 19.4479 15.0941 20.0503ZM17.1785 19.605V20.4217L17.9059 20.0503C19.0857 19.4479 20.2698 19.0079 21.4588 18.728C22.6511 18.4472 23.8788 18.3065 25.1429 18.3065C26.0621 18.3065 26.9205 18.3721 27.719 18.5018C28.5174 18.6316 29.2736 18.8158 29.988 19.054C30.2383 19.1507 30.5147 19.1403 30.7608 18.9833L30.7608 18.9832C31.0303 18.8112 31.1429 18.535 31.1429 18.2576V3.66217C31.1429 3.47195 31.0868 3.28895 30.9717 3.13069C30.8452 2.95667 30.6649 2.85142 30.4998 2.78388L30.4998 2.78376L30.489 2.77962C29.5984 2.43917 28.7263 2.19213 27.873 2.04061L27.873 2.04061C27.0217 1.88946 26.1112 1.81481 25.1429 1.81481C23.7955 1.81481 22.4576 1.99769 21.1301 2.36243C19.7971 2.72869 18.5562 3.27874 17.4091 4.0126L17.1785 4.1601V4.43379V19.605ZM27.0923 10.6232L27.015 11.1171L27.0923 10.6232C26.4824 10.5277 25.8322 10.4806 25.1429 10.4806C24.0966 10.4806 23.0807 10.6079 22.0966 10.8632C21.3877 11.0471 20.7061 11.2839 20.0522 11.5739V10.6361C20.7832 10.3256 21.5444 10.0877 22.3363 9.92243C23.2348 9.73492 24.17 9.64065 25.1429 9.64065C25.7501 9.64065 26.3381 9.68304 26.907 9.76731C27.3595 9.83436 27.8136 9.91823 28.2692 10.019V10.8782C27.8764 10.7696 27.4841 10.6845 27.0923 10.6232Z" fill="white" stroke="#2E1A16"/>
</svg>
