<svg width="33" height="23" viewBox="0 0 33 23" fill="none" xmlns="http://www.w3.org/2000/svg">
<path d="M19.5522 8.12566V6.09573C20.4064 5.70599 21.3004 5.41367 22.2342 5.21879C23.168 5.02391 24.1375 4.92646 25.1429 4.92646C25.7735 4.92646 26.3859 4.97048 26.9802 5.05853C27.5745 5.14657 28.1709 5.2628 28.7692 5.40722V7.34216C28.181 7.14036 27.5962 6.99395 27.015 6.90292C26.4337 6.81192 25.8097 6.76642 25.1429 6.76642C24.1375 6.76642 23.164 6.88364 22.2221 7.11809C21.2803 7.35255 20.3903 7.68841 19.5522 8.12566ZM19.5522 16.5837V14.5242C20.3862 14.1344 21.2777 13.8421 22.2266 13.6472C23.1755 13.4523 24.1476 13.3549 25.1429 13.3549C25.7735 13.3549 26.3859 13.3989 26.9802 13.4869C27.5745 13.575 28.1709 13.6912 28.7692 13.8356V15.7706C28.181 15.5688 27.5962 15.4224 27.015 15.3314C26.4337 15.2403 25.8097 15.1948 25.1429 15.1948C24.1375 15.1948 23.164 15.3131 22.2221 15.5495C21.2803 15.7859 20.3903 16.1307 19.5522 16.5837ZM19.5522 12.3696V10.31C20.4064 9.92019 21.3004 9.62786 22.2342 9.43298C23.168 9.23809 24.1375 9.14065 25.1429 9.14065C25.7735 9.14065 26.3859 9.18467 26.9802 9.27271C27.5745 9.36075 28.1709 9.477 28.7692 9.62144V11.5564C28.181 11.3546 27.5962 11.2081 27.015 11.1171C26.4337 11.0261 25.8097 10.9806 25.1429 10.9806C24.1375 10.9806 23.164 11.1028 22.2221 11.3472C21.2803 11.5915 20.3903 11.9323 19.5522 12.3696ZM7.85709 17.8065C9.15858 17.8065 10.4248 17.9514 11.6558 18.2413C12.8867 18.5311 14.1086 18.9857 15.3214 19.605V4.43379C14.2174 3.72747 13.0227 3.19773 11.7374 2.84456C10.452 2.49139 9.15858 2.31481 7.85709 2.31481C6.91423 2.31481 6.03333 2.38751 5.21437 2.53291C4.39542 2.67833 3.5538 2.91625 2.68951 3.24665C2.56861 3.28624 2.48298 3.34313 2.43262 3.41734C2.38225 3.49154 2.35707 3.57315 2.35707 3.66217V18.2576C2.35707 18.3961 2.40744 18.4975 2.50817 18.5618C2.60892 18.6261 2.71975 18.6335 2.84064 18.584C3.58605 18.3348 4.37276 18.1428 5.20078 18.0083C6.02879 17.8738 6.91423 17.8065 7.85709 17.8065ZM17.6785 19.605C18.8913 18.9857 20.1132 18.5311 21.3442 18.2413C22.5752 17.9514 23.8414 17.8065 25.1429 17.8065C26.0857 17.8065 26.9712 17.8738 27.7992 18.0083C28.6272 18.1428 29.4139 18.3348 30.1593 18.584C30.2802 18.6335 30.391 18.6261 30.4918 18.5618C30.5925 18.4975 30.6429 18.3961 30.6429 18.2576V3.66217C30.6429 3.57315 30.6177 3.49401 30.5673 3.42474C30.517 3.35548 30.4313 3.29611 30.3105 3.24665C29.4462 2.91625 28.6045 2.67833 27.7856 2.53291C26.9666 2.38751 26.0857 2.31481 25.1429 2.31481C23.8414 2.31481 22.548 2.49139 21.2626 2.84456C19.9772 3.19773 18.7826 3.72747 17.6785 4.43379V19.605ZM16.5 23C15.2327 22.082 13.8658 21.3727 12.3991 20.8721C10.9325 20.3716 9.41844 20.1213 7.85709 20.1213C6.89812 20.1213 5.95629 20.2257 5.03158 20.4344C4.10684 20.6431 3.21535 20.9503 2.35711 21.3558C1.79705 21.6091 1.26418 21.569 0.758492 21.2357C0.252831 20.9023 0 20.4299 0 19.8185V3.0627C0 2.73032 0.0871229 2.41821 0.261369 2.12638C0.435641 1.83456 0.686979 1.62434 1.01538 1.49574C2.07911 0.98727 3.18767 0.610863 4.34105 0.366518C5.49443 0.122173 6.66644 0 7.85709 0C9.38623 0 10.8801 0.205275 12.3387 0.615826C13.7973 1.02635 15.1844 1.63227 16.5 2.43356C17.8156 1.63227 19.2026 1.02635 20.6613 0.615826C22.1199 0.205275 23.6137 0 25.1429 0C26.3335 0 27.5055 0.122173 28.6589 0.366518C29.8123 0.610863 30.9208 0.98727 31.9846 1.49574C32.313 1.62434 32.5643 1.83456 32.7386 2.12638C32.9129 2.41821 33 2.73032 33 3.0627V19.8185C33 20.4299 32.7371 20.8973 32.2113 21.2208C31.6854 21.5443 31.1324 21.5794 30.5522 21.3262C29.704 20.9305 28.8251 20.6308 27.9155 20.427C27.0059 20.2232 26.0817 20.1213 25.1429 20.1213C23.5815 20.1213 22.0675 20.3716 20.6008 20.8721C19.1342 21.3727 17.7672 22.082 16.5 23Z" fill="#D9D9D9"/>
</svg>
