<svg width="24" height="24" viewBox="0 0 24 24" fill="none" xmlns="http://www.w3.org/2000/svg">
<path d="M2.55205 24C1.83892 24 1.2353 23.7529 0.741179 23.2588C0.24706 22.7647 0 22.1611 0 21.4479V2.55206C0 1.83892 0.24706 1.2353 0.741179 0.741179C1.2353 0.24706 1.83892 0 2.55205 0H12.0136V2.11762H2.55205C2.44344 2.11762 2.34388 2.16287 2.25336 2.25336C2.16286 2.34388 2.11762 2.44344 2.11762 2.55206V21.4479C2.11762 21.5566 2.16286 21.6561 2.25336 21.7466C2.34388 21.8371 2.44344 21.8824 2.55205 21.8824H12.0136V24H2.55205ZM17.9729 18.0271L16.5069 16.4959L19.944 13.0588H7.90043V10.9412H19.944L16.5069 7.50408L17.9729 5.97291L24 12L17.9729 18.0271Z" fill="#D9D9D9"/>
</svg>
