<svg width="32" height="34" viewBox="0 0 32 34" fill="none" xmlns="http://www.w3.org/2000/svg">
<path d="M30.0533 9.09508C29.895 8.42275 29.5724 7.80672 29.1182 7.30924C28.664 6.81176 28.0943 6.45043 27.4667 6.26175C25.1733 5.66675 16 5.66675 16 5.66675C16 5.66675 6.82667 5.66675 4.53334 6.31841C3.90566 6.50709 3.33597 6.86842 2.8818 7.36591C2.42762 7.86339 2.10505 8.47941 1.94667 9.15175C1.52695 11.6246 1.32165 14.1332 1.33334 16.6459C1.31837 19.1776 1.52369 21.7053 1.94667 24.1967C2.12128 24.8482 2.45108 25.4408 2.90419 25.9173C3.35731 26.3937 3.91843 26.738 4.53334 26.9167C6.82667 27.5684 16 27.5684 16 27.5684C16 27.5684 25.1733 27.5684 27.4667 26.9167C28.0943 26.7281 28.664 26.3667 29.1182 25.8693C29.5724 25.3718 29.895 24.7558 30.0533 24.0834C30.4698 21.6292 30.6751 19.1397 30.6667 16.6459C30.6816 14.1143 30.4763 11.5866 30.0533 9.09508Z" stroke="white" stroke-width="2" stroke-linecap="round" stroke-linejoin="round"/>
<path d="M13 21.2784L20.6667 16.6459L13 12.0134V21.2784Z" stroke="white" stroke-width="2" stroke-linecap="round" stroke-linejoin="round"/>
</svg>
